<svg width="536" height="244" viewBox="0 0 536 244" fill="none" xmlns="http://www.w3.org/2000/svg">
<g clip-path="url(#clip0_4999_3022)">
<path d="M107.566 147.521C110.373 144.684 112.697 141.221 116.07 138.211C117.165 137.232 118.606 136.118 119.897 136.26C124.208 136.737 121.812 146.127 121.812 149.903C121.812 154.903 122.916 158.393 124.575 161.598C125.067 162.552 126.6 163.66 125.637 165.064C122.874 165.261 120.542 163.405 119.256 161.598C116.819 158.174 116.267 151.911 116.067 145.79C114.325 146.576 112.879 148.894 111.175 150.987C109.687 152.816 107.763 154.769 106.71 156.619C105.397 158.916 104.696 163.502 102.244 163.764C100.792 163.922 99.7954 162.482 99.0557 161.382C103.199 145.674 106.164 140.835 104.341 121.752C105.013 121.102 105.606 119.969 107.53 120.455C110.14 121.105 110.093 124.817 110.295 128.463C110.955 140.231 108.634 138.183 107.563 147.521" fill="white"/>
<path d="M337.756 211.404C336.151 210.271 335.921 208.534 336.056 205.991C336.291 201.629 337.392 197.079 338.391 192.78C341.177 180.824 345.112 168.303 347.963 156.398C346.881 156.541 346.141 157.734 345.198 158.564C343.438 160.125 341.544 161.86 339.033 163.111C337.559 163.843 334.94 164.997 333.499 163.764C332.214 162.658 332.903 159.381 333.287 157.051C334.218 151.404 334.537 148.779 335.841 143.409C336.431 140.975 336.751 138.323 338.606 138.208C340.068 138.12 340.396 139.156 341.156 140.158C340.205 146.045 338.812 151.486 338.179 157.701C342.183 155.802 345.031 153.108 348.175 149.903C348.999 149.071 350.35 147.986 350.94 146.872C351.701 145.435 351.97 143.044 352.641 141.027C354.099 136.638 355.65 131.905 357.745 127.816C358.592 126.17 359.478 124.314 361.572 124.35C364.262 124.399 365.187 128.569 364.549 131.71C363.275 138.017 357.983 142.47 355.406 147.737C353.998 150.614 353.375 154.083 352.429 157.479C347.943 173.591 343.104 191.389 341.156 209.023C340.276 210.074 339.617 211.356 337.753 211.404" fill="white"/>
<path d="M279.625 137.557C277.972 139.736 276.594 137.633 274.733 137.557C272.824 137.475 270.974 138.824 269.841 139.72C267.105 141.892 263.09 147.539 262.613 152.5C262.294 155.811 263.233 160.228 266.228 160.51C267.201 160.608 268.773 160.088 269.632 159.648C271.619 158.627 274.974 154.529 275.798 151.2C276.308 149.137 276.352 146.75 275.162 145.137C271.818 144.535 272.716 151.835 270.058 151.85C268.134 151.862 267.681 147.302 268.143 145.352C268.904 142.138 272.63 139.091 277.077 139.723C281.319 141.513 282.569 148.247 280.481 153.587C279.702 155.565 277.599 158.627 276.015 160.298C274.109 162.306 271.392 163.934 268.994 164.414C265.999 165.006 263.177 164.605 261.339 163.117C259.397 161.531 257.84 158.256 257.515 155.969C256.635 149.851 258.941 145.216 261.766 141.027C263.806 137.995 266.568 134.991 268.994 133.66C272.856 131.552 279.407 131.919 279.628 137.561" fill="white"/>
<path d="M94.7574 145.14C94.6918 142.825 96.7798 141.346 95.6105 139.076C94.7305 137.375 91.5418 138.062 90.0772 138.861C86.7243 140.692 83.3835 147.005 84.1262 152.719C84.5766 156.212 86.8765 159.162 90.7185 159.432C92.9676 159.59 95.2376 158.424 97.7344 158.782C97.3496 160.766 96.5471 161.124 95.6105 161.814C88.1114 167.33 79.3386 159.426 78.5929 150.984C77.9396 143.572 83.4342 134.559 90.0772 133.226C91.5806 132.925 93.958 132.901 95.1839 133.226C97.269 133.779 101.77 136.838 100.929 141.455C100.565 143.426 96.8216 147.922 94.7604 145.14" fill="white"/>
<path d="M326.648 145.14C326.583 142.825 328.671 141.346 327.502 139.076C326.625 137.378 323.436 138.062 321.968 138.861C318.621 140.686 315.275 147.002 316.014 152.719C316.316 155.046 317.598 157.555 319.418 158.566C322.413 160.228 325.873 158.715 329.628 158.785C329.244 160.769 328.441 161.127 327.505 161.817C320.005 167.333 311.233 159.429 310.49 150.987C309.84 143.575 315.331 134.562 321.974 133.229C323.478 132.928 325.855 132.904 327.081 133.229C329.166 133.782 333.673 136.841 332.82 141.458C332.459 143.429 328.719 147.925 326.654 145.143" fill="white"/>
<path d="M241.697 155.1C242.553 158.43 245.926 159.611 249.78 158.782C252.408 158.217 254.547 155.902 256.793 156.404C256.161 159.757 251.633 162.5 247.862 162.898C242.744 163.436 239.006 161.306 236.805 157.916C235.528 155.951 234.463 153.445 234.681 149.909C235.057 143.764 240.28 135.629 246.162 134.098C251.451 132.725 255.773 135.723 255.096 142.327C254.941 143.806 254.282 145.55 253.607 147.09C252.984 148.518 252.405 150.17 251.692 151.206C249.667 154.162 245.762 155.289 241.697 155.103M245.736 140.38C243.346 142.376 240.566 146.306 240.423 149.909C247.818 151.571 249.685 144.639 249.78 138.864C247.847 138.703 246.729 139.55 245.736 140.38Z" fill="white"/>
<path d="M211.846 144.055C209.472 141.953 209.012 138.375 204.192 138.861C200.222 139.256 197.576 143.748 197.17 148.603C196.976 150.999 197.17 154.617 197.17 157.698C197.17 161.282 197.385 164.292 194.408 163.976C190.408 163.551 191.643 152.962 191.643 148.168V142.539C191.643 140.887 191.321 139.01 192.069 137.558C192.803 136.85 194.465 137.114 195.261 137.558C198.85 134.584 208.705 132.767 212.058 137.342C212.986 138.606 214.415 142.664 211.846 144.052" fill="white"/>
<path d="M425.84 144.055C423.465 141.953 423.012 138.375 418.182 138.861C414.23 139.256 411.569 143.758 411.166 148.603C410.967 150.999 411.166 154.617 411.166 157.698C411.166 161.282 411.381 164.292 408.404 163.976C404.407 163.551 405.639 152.962 405.639 148.168V142.539C405.639 140.887 405.317 139.01 406.066 137.558C406.796 136.85 408.461 137.114 409.257 137.558C412.861 134.596 422.704 132.761 426.054 137.342C426.982 138.606 428.411 142.664 425.843 144.052" fill="white"/>
<path d="M184.565 157.494C184.774 157.925 189.013 161.048 188.616 161.382C186.552 163.093 184.744 162.871 182.235 161.595C181.12 161.03 180.04 160.055 179.258 160.079C178.083 160.116 176.833 161.78 176.07 162.248C174.456 163.232 172.592 164.341 170.325 164.411C166.596 164.523 162.679 162.528 161.82 159.429C161.447 158.096 161.456 156.476 161.82 154.882C163.374 148.098 171.798 140.632 177.558 137.123C178.951 136.273 180.654 135.03 182.662 134.96C185.209 134.863 188.124 137.178 187.978 139.724C187.715 144.356 182.432 153.178 184.562 157.491M181.171 141.018C178.182 142.315 174.957 145.726 172.448 148.6C169.973 151.446 167.082 154.945 167.348 158.992C170.608 161.328 174.483 158.852 176.804 156.434C182.349 150.65 182.999 141.018 181.597 141.018H181.171Z" fill="white"/>
<path d="M230.532 157.494C230.746 157.925 234.979 161.048 234.582 161.382C232.518 163.093 230.711 162.871 228.202 161.595C227.086 161.03 226.007 160.055 225.225 160.079C224.05 160.116 222.8 161.78 222.036 162.248C220.422 163.232 218.558 164.341 216.291 164.411C212.562 164.523 208.646 162.528 207.787 159.429C207.42 158.096 207.423 156.477 207.787 154.882C209.341 148.099 217.765 140.632 223.525 137.123C224.918 136.273 226.621 135.03 228.629 134.96C231.176 134.863 234.09 137.178 233.944 139.724C233.679 144.356 228.399 153.178 230.529 157.491M227.137 141.018C224.148 142.315 220.921 145.726 218.415 148.6C215.939 151.446 213.049 154.946 213.311 158.992C216.574 161.328 220.449 158.852 222.767 156.434C228.312 150.65 228.96 141.018 227.561 141.018H227.134H227.137Z" fill="white"/>
<path d="M270.709 111.017C270.917 111.449 275.156 114.572 274.759 114.903C272.695 116.613 270.888 116.388 268.379 115.115C267.263 114.55 266.184 113.575 265.402 113.599C264.227 113.636 262.977 115.295 262.213 115.768C260.599 116.753 258.732 117.861 256.468 117.931C252.739 118.044 248.823 116.048 247.964 112.949C247.591 111.616 247.6 110 247.964 108.402C249.515 101.619 257.942 94.1521 263.696 90.6436C265.089 89.793 266.798 88.5506 268.803 88.4777C271.35 88.3866 274.264 90.7013 274.118 93.2439C273.85 97.8763 268.57 106.698 270.703 111.014M267.311 94.544C264.322 95.835 261.092 99.2494 258.589 102.123C256.113 104.969 253.223 108.472 253.485 112.515C256.749 114.851 260.617 112.375 262.941 109.954C268.483 104.17 269.137 94.544 267.735 94.544H267.308H267.311Z" fill="white"/>
<path d="M306.373 162.68C303.36 164.165 301.233 161.085 300.846 158.998C299.742 153.065 304.589 146.397 302.97 141.021C297.812 144.712 294.426 150.061 289.997 154.663C288.559 156.161 287.202 158.032 284.893 158.348C280.043 155.55 285.224 148.068 284.678 142.321C287.053 138.922 292.52 142.275 290.206 146.653C293.922 144.18 298.471 136.859 303.393 135.386C307.426 134.183 309.419 137.722 309.132 142.099C308.792 147.394 305.424 153.451 305.735 158.773C305.824 160.337 306.6 161.17 306.37 162.673" fill="white"/>
<path d="M140.272 152.285C139.237 152.476 138.357 153.585 137.506 154.447C135.812 156.179 134.046 157.929 131.979 159.651C130.905 160.547 129.912 161.814 128.79 161.814C127.761 161.814 125.822 160.222 125.599 158.998C125.351 157.625 126.186 155.52 126.661 153.8C127.851 149.52 129.775 143.937 131.767 140.808C133.39 140.744 134.422 141.279 135.171 142.108C135.58 144.997 134.064 147.755 133.682 150.556C134.84 149.733 136.185 148.439 137.724 146.871C138.771 145.805 140.17 143.405 141.975 143.408C145.832 143.411 144.833 151.956 145.378 155.532C145.814 158.363 147.082 161.234 149.844 160.514C153.823 159.478 156.896 149.104 156.224 142.543C155.998 140.334 155.142 138.66 153.674 137.561C153.361 137.221 152.004 136.823 152.612 136.261C152.534 135.893 152.776 135.857 153.039 135.832C158.035 133.937 161.093 138.979 161.328 143.843C161.656 150.535 158.572 160.772 154.736 164.201C147.801 170.407 138.986 162.13 140.278 152.291" fill="white"/>
<path d="M457.715 139.289C454.536 144.969 449.545 149.963 450.488 159.429C450.616 160.726 451.415 161.896 450.911 163.545C444.605 165.729 444.349 156.546 445.381 151.197C444.749 151.033 444.152 151.707 443.684 152.063C440.984 154.113 438.478 156.586 435.179 158.56C433.918 159.317 432.235 160.115 430.926 160.079C427.364 159.976 425.747 156.625 426.248 152.5C426.842 147.579 428.885 138.754 432.414 138.858C433.718 138.894 434.923 140.319 434.97 141.889C435.015 143.587 433.586 145.814 432.841 147.74C432.047 149.799 431.096 151.698 431.352 154.234C432.954 154.231 434.392 153.308 435.818 152.5C439.018 150.689 442.643 148.144 445.813 145.787C446.407 145.34 447.379 144.857 447.729 144.486C448.671 143.487 449.321 141.595 450.279 140.158C451.165 138.83 452.245 137.062 453.471 136.692C455.198 136.169 457.059 137.412 457.721 139.289" fill="white"/>
<path d="M368.525 146.868C369.211 146.944 369.969 146.179 370.655 145.568C373.137 143.357 376.642 138.843 381.922 139.511C384.588 139.842 386.506 144.69 386.175 149.034C387.216 148.627 387.792 147.136 389.152 147.087C391.064 147.017 392.463 149.648 393.618 151.631C396.353 156.337 398.369 161.203 406.373 160.514C407.96 160.377 409.26 159.156 410.88 160.52C410.367 162.336 410.966 163.348 409.263 163.949C407.369 164.618 402.963 164.994 400.842 164.845C394.942 164.42 391.652 158.87 389.358 155.097C386.894 157.279 385.901 160.963 382.978 162.677C381.435 161.726 379.574 161.322 379.153 159.645C378.73 157.983 379.625 154.724 380.001 152.285C380.4 149.699 381.027 147.33 380.215 145.356C377.599 145.128 376.167 147.066 374.688 148.603C371.884 151.519 369.939 154.554 367.457 158.567C366.533 160.058 365.098 163.321 363.842 163.548C361.748 163.931 361.339 161.644 360.438 160.298C360.462 158.244 362.055 153.715 362.992 148.822C363.818 144.505 363.174 138.269 366.395 137.776C367.89 137.549 369.181 138.976 369.372 139.727C370.038 142.333 368.066 143.913 368.519 146.871" fill="white"/>
<path d="M210.001 83.1311C213.341 83.5929 215.015 83.283 217.947 84.3857C218.878 84.735 220.319 85.5917 220.387 86.6427C216.196 87.1925 213.371 86.7156 209.559 87.6452C208.178 96.9982 208.199 107.782 207.119 117.442C204.249 117.463 203.244 114.094 201.803 112.023C198.901 107.867 196.064 104.082 193.156 99.1581C191.775 96.816 189.505 93.4411 190.274 90.8044C191.664 86.0625 199.384 84.7928 204.903 83.5838C205.49 80.1572 205.968 75.6068 206.675 71.3935C207.411 67.0101 208.369 61.691 210.666 60.1084C212.05 60.6187 213.908 61.3812 214.209 62.815C214.445 63.9238 213.577 66.2081 213.103 68.0064C211.96 72.3412 210.397 78.5017 210.001 83.1342M195.593 93.7418C195.524 95.771 197.917 98.5292 199.137 100.513C199.82 101.625 200.506 102.715 201.135 103.675C201.792 104.684 202.185 106.245 203.352 106.16C203.572 100.139 204.103 94.4375 204.461 88.5504C200.864 89.085 195.691 90.8408 195.596 93.7418" fill="white"/>
<path d="M93.6026 104.802C92.5437 107.111 90.1245 108.031 90.053 111.345C93.2328 112.782 98.9391 109.48 99.3657 107.059C99.9682 103.593 96.6154 100.236 95.1508 97.8032C93.2984 94.726 91.1029 91.2053 91.1596 86.5182C91.2133 82.3717 94.0083 79.9324 98.4738 79.9719C102.891 80.0084 106.948 82.557 107.563 84.4859C107.915 85.5825 107.98 90.0388 104.461 89.006C102.832 88.52 103.509 86.1749 102.462 85.1633C101.033 83.7903 96.8033 84.492 96.2545 86.7429C95.4401 90.1087 98.7631 94.5529 100.022 96.6762C102.023 100.042 105.609 105.249 104.013 110.218C103.715 111.151 102.119 113.095 100.911 114.061C98.1367 116.275 94.065 118.198 89.164 117.445C86.2318 116.995 83.2728 114.538 84.5077 110.674C85.5428 107.454 89.3102 102.056 93.5967 104.805" fill="white"/>
<path d="M339.027 83.5836C338.86 85.3728 339.507 87.9853 338.362 88.7751C337.252 89.4525 335.579 88.7143 335.039 87.645C334.598 86.7671 335.233 85.9865 334.374 85.1602C332.915 83.7598 328.709 84.5132 328.166 86.7428C327.403 89.9112 330.177 93.7113 331.937 96.6761C333.876 99.9417 338.04 106.609 335.481 111.123C333.637 114.374 325.458 119.69 319.301 116.989C317.27 116.099 315.39 113.879 316.42 110.668C317.428 107.533 320.963 102.162 325.509 104.805C324.45 107.111 322.03 108.034 321.959 111.348C325.097 112.767 330.836 109.538 331.272 107.062C331.337 106.688 331.206 105.747 331.048 105.03C329.989 100.215 322.955 94.41 323.072 86.5211C323.125 82.569 325.565 79.9354 330.383 79.9718C334.073 80.0052 336.199 81.3357 339.027 83.5867" fill="white"/>
<path d="M157.089 88.0979C156.337 88.2741 155.046 88.6325 154.207 88.997C150.333 90.6951 144.593 98.5111 144.677 104.574C144.71 107.047 145.837 110.75 148.224 111.124C151.726 111.673 154.219 108.523 155.758 106.157C156.635 104.817 157.712 103.11 157.978 102.093C158.515 100.012 158.542 97.0895 157.313 95.7772C154.175 95.036 154.843 102.618 152.215 102.548C150.255 102.487 149.828 97.5238 150.443 95.5493C151.031 93.6447 153.73 90.8045 156.206 90.3579C157.298 90.1605 158.216 90.5068 159.308 90.3579C162.443 92.4175 164.143 94.8355 163.741 99.6138C163.141 106.798 156.952 114.322 150.667 115.185C147.123 115.677 145.175 115.13 143.57 113.833C141.363 112.044 139.779 108.317 139.579 105.483C139.501 104.331 139.537 103.022 139.803 101.418C140.73 95.7984 145.637 88.028 150.219 84.9387C152.176 83.6203 154.413 82.5662 157.533 83.1312C159.657 83.5109 162.843 86.333 161.745 88.3196C160.832 89.9782 158.506 88.8786 157.089 88.0979Z" fill="white"/>
<path d="M119.167 85.8378C119.456 86.4939 119.456 87.4386 119.167 88.0948C124.587 90.4156 130.935 93.4472 134.905 97.8002C136.262 99.2917 138.18 101.956 137.786 104.802C137.318 108.183 132.838 110.999 128.697 111.573C124.864 112.105 119.704 111.312 119.167 108.186C118.484 104.237 124.381 97.8792 128.256 100.738C128.405 103.092 125.1 103.83 124.933 106.607C126.099 107.281 127.999 106.616 129.366 106.151C135.633 104.04 130.439 99.3768 126.925 96.9011C124.068 94.884 121.183 93.4958 118.725 92.8366C117.473 95.6708 117.693 100.075 117.836 103.444C118.254 113.037 119.573 122.989 120.942 131.434C119.972 132.281 117.556 133.499 116.062 132.339C114.901 131.428 114.293 125.455 113.851 122.406C112.754 114.945 112.214 107.904 110.746 101.187C109.83 96.9952 106.585 87.9641 112.297 87.4174C113.267 86.1355 113.159 84.3614 114.961 84.0334C116.536 83.7448 118.004 84.9264 119.17 85.8408" fill="white"/>
<path d="M300.556 105.704C301.245 108.411 303.658 109.647 306.095 109.769C309.747 109.954 312.902 106.704 315.85 107.062C314.576 110.88 310.495 113.368 306.095 113.605C297.648 114.055 291.563 106.366 294.125 97.1287C295.097 93.6202 298.555 88.3741 301.663 86.2932C303.235 85.2422 306.674 83.8023 309.645 84.4858C312.556 85.1602 314.582 88.608 314.078 93.0643C313.672 96.6245 310.949 101.928 309.201 103.45C307.196 105.194 304.392 105.853 300.556 105.707M302.549 93.5169C301.099 95.2454 299.294 97.4629 299.446 100.516C306.632 102.108 308.855 95.5096 308.535 89.4555C305.645 89.3947 303.906 91.91 302.549 93.5199" fill="white"/>
<path d="M187.023 94.6441C184.789 93.9332 184.905 91.3542 183.256 90.3518C180.574 88.7266 177.173 89.7959 175.276 91.7066C174.495 92.4964 173.415 93.5049 173.06 94.641C171.574 99.3586 171.968 106.597 172.171 112.925C171.24 113.854 170.921 114.893 169.293 114.732C166.19 114.429 166.36 107.785 166.629 103.897C166.82 101.169 166.754 97.7 166.629 94.8688C166.5 91.8949 165.814 89.0911 167.294 87.87C168.43 87.4174 169.072 87.9459 170.175 88.0978C174.211 84.8596 184.726 83.5504 187.465 88.7722C188.21 90.1908 188.84 93.3044 187.023 94.641" fill="white"/>
<path d="M288.207 75.7525C289.51 69.7136 290.903 63.7688 291.974 57.6235C291.422 56.3538 289.448 55.9376 287.765 56.4965C286.524 58.1338 286.223 60.4729 285.767 62.5932C284.749 67.332 283.714 72.0678 282.754 76.8582L281.772 81.916C280.391 89.3037 279.255 96.8615 278.676 104.802C278.333 109.459 277.164 116.719 281.113 117.439C284.093 117.983 286.712 115.246 288.427 113.83C290.569 112.062 292.967 110.476 292.86 107.733C289.549 107.551 287.315 111.531 283.771 111.117C283.416 101.163 285.033 92.0012 286.653 83.3559C286.846 82.3291 287.049 81.3054 287.255 80.2878L288.207 75.7525Z" fill="white"/>
<path d="M279.84 67.578L270.524 63.5895C269.787 63.307 268.961 63.6867 268.684 64.4401C268.406 65.1934 268.785 66.0318 269.519 66.3113L273.576 68.2098C212.357 69.8563 211.892 109.307 211.892 109.307C212.157 110.604 214.096 112.539 215.283 112.478C216.106 112.436 217.374 111.303 218.388 110.443C221.44 107.861 223.632 104.923 226.365 102.773C226.612 108.374 227.895 112.934 231.021 115.41C232.566 116.634 234.681 117.466 237.226 116.995C243.544 115.82 248.713 101.901 247.648 93.2921C247.517 92.2259 247.132 90.701 246.759 89.9081C245.697 87.6299 241.05 83.6869 238.78 87.2015C240.056 88.3893 240.922 88.7477 241.661 90.1299C244.039 94.5892 241.521 104.948 239.221 108.642C238.467 109.863 236.915 111.315 235.678 111.354C230.592 111.497 231.919 103.177 231.245 98.2588C231.033 96.7217 230.055 93.9908 228.363 93.9726C226.809 93.9544 225.011 96.2569 223.931 97.3566C222.368 98.9483 220.22 101.795 219.796 101.008C225.258 74.7713 265.895 70.0173 273.829 69.3338L270.19 71.8277C269.501 72.2166 269.247 73.1005 269.629 73.8022C269.886 74.2822 270.375 74.5526 270.879 74.5526C271.115 74.5526 271.35 74.4948 271.568 74.3764L279.959 69.2214C280.26 69.0482 280.436 68.7171 280.413 68.3617C280.389 68.0094 280.162 67.7056 279.837 67.581" fill="white"/>
</g>
<defs>
<clipPath id="clip0_4999_3022">
<rect width="378.832" height="156.065" fill="white" transform="translate(78.584 56.0015)"/>
</clipPath>
</defs>
</svg>
