<svg width="164" height="54" viewBox="0 0 164 54" fill="none" xmlns="http://www.w3.org/2000/svg">
<g clip-path="url(#clip0_679_1442)">
<path d="M12.5369 31.765C13.7492 30.7776 14.7528 29.5723 16.2099 28.5246C16.6827 28.1841 17.305 27.7961 17.8628 27.8458C19.7244 28.0118 18.6899 31.2798 18.6899 32.5939C18.6899 34.3342 19.1666 35.5489 19.8829 36.6643C20.0955 36.9963 20.7577 37.3822 20.3415 37.8707C19.1486 37.9394 18.1411 37.2934 17.5858 36.6643C16.5333 35.4728 16.2949 33.2928 16.2086 31.1624C15.4562 31.4362 14.8314 32.2429 14.0958 32.9714C13.4529 33.6078 12.6219 34.2876 12.1672 34.9315C11.6003 35.7308 11.2975 37.3272 10.2385 37.4182C9.61113 37.4731 9.18083 36.972 8.86133 36.5893C10.6508 31.1222 11.9314 29.438 11.1442 22.7964C11.4341 22.5702 11.6905 22.1758 12.5214 22.345C13.6487 22.5712 13.6281 23.8632 13.7157 25.1319C14.0004 29.2277 12.9981 28.5151 12.5356 31.765" fill="white"/>
<path d="M111.955 54C111.262 53.6056 111.163 53.0009 111.22 52.116C111.322 50.5977 111.798 49.014 112.229 47.518C113.433 43.3567 115.132 38.9987 116.363 34.8553C115.896 34.905 115.576 35.3205 115.169 35.6091C114.409 36.1526 113.591 36.7563 112.506 37.1918C111.87 37.4466 110.739 37.8484 110.116 37.4192C109.561 37.0343 109.859 35.8935 110.025 35.0826C110.427 33.1172 110.565 32.2037 111.128 30.3345C111.383 29.4877 111.521 28.5647 112.322 28.5245C112.953 28.4939 113.095 28.8544 113.424 29.2033C113.013 31.2522 112.411 33.1458 112.138 35.3089C113.867 34.6481 115.097 33.7103 116.455 32.5949C116.811 32.3052 117.394 31.9278 117.649 31.5398C117.978 31.0397 118.094 30.2077 118.384 29.5056C119.014 27.9779 119.683 26.3307 120.588 24.9077C120.954 24.3346 121.336 23.6887 122.241 23.7014C123.403 23.7183 123.802 25.1699 123.527 26.2631C122.976 28.4579 120.691 30.0078 119.578 31.8411C118.97 32.8423 118.7 34.0497 118.292 35.2317C116.354 40.8393 114.265 47.0338 113.424 53.1711C113.043 53.5369 112.759 53.9831 111.954 54" fill="white"/>
<path d="M86.8459 28.2983C86.1322 29.0564 85.537 28.3248 84.7331 28.2983C83.9086 28.2698 83.1098 28.7392 82.6202 29.0511C81.4389 29.807 79.7048 31.7724 79.4987 33.4989C79.3608 34.6513 79.7666 36.1886 81.0601 36.2869C81.4801 36.3207 82.159 36.1399 82.5301 35.9866C83.3881 35.6314 84.8374 34.2052 85.193 33.0464C85.4133 32.3286 85.4326 31.4976 84.9186 30.9362C83.4744 30.7268 83.8622 33.2674 82.7143 33.2727C81.8833 33.2769 81.6875 31.69 81.8872 31.0112C82.2157 29.8927 83.8248 28.8322 85.7457 29.0521C87.5777 29.6749 88.1175 32.0188 87.2157 33.8774C86.8794 34.5657 85.9712 35.6314 85.2871 36.2129C84.4638 36.9117 83.2902 37.4784 82.2544 37.6455C80.9609 37.8516 79.7421 37.7121 78.9485 37.194C78.1098 36.6421 77.4373 35.5024 77.2969 34.7063C76.9169 32.577 77.9127 30.9636 79.1328 29.5057C80.014 28.4506 81.207 27.4049 82.2544 26.9419C83.9227 26.2081 86.7519 26.3361 86.8472 28.2994" fill="white"/>
<path d="M7.00293 30.9361C6.97459 30.1305 7.87641 29.6156 7.37139 28.8258C6.99134 28.2338 5.61413 28.4727 4.98156 28.7508C3.53349 29.3883 2.09057 31.5853 2.41136 33.5739C2.6059 34.7898 3.59919 35.8164 5.25855 35.9105C6.22994 35.9654 7.21035 35.5595 8.28868 35.6842C8.12248 36.3746 7.77593 36.4994 7.37139 36.7393C4.13256 38.6593 0.343611 35.9084 0.0228199 32.9703C-0.259322 30.3906 2.11376 27.2537 4.98285 26.7896C5.63216 26.6849 6.65895 26.6765 7.18845 26.7896C8.08899 26.982 10.0331 28.0467 9.66975 29.6537C9.51258 30.3398 7.89574 31.9046 7.00551 30.9361" fill="white"/>
<path d="M107.158 30.9362C107.129 30.1305 108.031 29.6157 107.526 28.8259C107.147 28.2349 105.77 28.4728 105.136 28.7508C103.691 29.3862 102.245 31.5843 102.565 33.574C102.695 34.3838 103.249 35.2571 104.035 35.6092C105.328 36.1875 106.823 35.661 108.445 35.6853C108.279 36.3757 107.932 36.5005 107.527 36.7404C104.289 38.6604 100.5 35.9095 100.179 32.9714C99.898 30.3917 102.27 27.2548 105.139 26.7907C105.788 26.686 106.815 26.6776 107.345 26.7907C108.245 26.9831 110.192 28.0478 109.823 29.6548C109.667 30.3409 108.052 31.9057 107.16 30.9372" fill="white"/>
<path d="M70.4662 34.4029C70.836 35.5616 72.2931 35.9729 73.9576 35.6843C75.0926 35.4876 76.0163 34.682 76.9864 34.8564C76.7133 36.0236 74.7576 36.9783 73.1292 37.1168C70.9184 37.304 69.3042 36.5628 68.3534 35.3829C67.802 34.6989 67.3421 33.8267 67.4361 32.596C67.5984 30.4572 69.8543 27.6259 72.3948 27.0931C74.679 26.6152 76.5458 27.6587 76.2534 29.9571C76.1864 30.472 75.9016 31.0789 75.6105 31.6149C75.3412 32.1118 75.0913 32.687 74.7834 33.0475C73.9086 34.0762 72.2222 34.4684 70.4662 34.4039M72.2106 29.2795C71.1787 29.9741 69.978 31.3421 69.9161 32.596C73.1099 33.1744 73.9163 30.7617 73.9576 28.7519C73.1227 28.6959 72.6396 28.9908 72.2106 29.2795Z" fill="white"/>
<path d="M57.575 30.5587C56.5495 29.8271 56.3511 28.5816 54.2692 28.7508C52.5544 28.8882 51.4117 30.4519 51.2365 32.1414C51.1527 32.9756 51.2365 34.2347 51.2365 35.3068C51.2365 36.5543 51.3292 37.6021 50.0435 37.4921C48.3158 37.3441 48.8492 33.6585 48.8492 31.9902V30.0311C48.8492 29.456 48.7101 28.8026 49.0334 28.2972C49.3504 28.0509 50.068 28.1429 50.4119 28.2972C51.9618 27.2622 56.2184 26.6299 57.6665 28.2222C58.0671 28.662 58.6842 30.0745 57.575 30.5576" fill="white"/>
<path d="M149.997 30.5587C148.972 29.8271 148.776 28.5816 146.69 28.7508C144.983 28.8882 143.834 30.4551 143.66 32.1414C143.574 32.9756 143.66 34.2347 143.66 35.3068C143.66 36.5543 143.753 37.6021 142.467 37.4921C140.741 37.3441 141.273 33.6585 141.273 31.9902V30.0311C141.273 29.456 141.134 28.8026 141.457 28.2972C141.773 28.0509 142.491 28.1429 142.835 28.2972C144.392 27.2664 148.643 26.6278 150.09 28.2222C150.491 28.662 151.108 30.0745 149.998 30.5576" fill="white"/>
<path d="M45.7924 35.236C45.8826 35.3861 47.7133 36.4729 47.5419 36.5892C46.6504 37.1845 45.8697 37.1073 44.7862 36.6633C44.3044 36.4666 43.838 36.1272 43.5005 36.1357C42.9929 36.1484 42.4531 36.7277 42.1232 36.8906C41.4263 37.2331 40.6211 37.619 39.6419 37.6433C38.0315 37.6824 36.34 36.9878 35.9689 35.9094C35.8079 35.4453 35.8118 34.8818 35.9689 34.3267C36.6402 31.9659 40.2784 29.3672 42.7661 28.1461C43.3678 27.85 44.1034 27.4176 44.9704 27.3933C46.0707 27.3595 47.3293 28.1651 47.2662 29.0511C47.1528 30.6634 44.8712 33.7336 45.7911 35.2349M44.3263 29.5015C43.0354 29.9529 41.6427 31.1402 40.5592 32.1403C39.4899 33.131 38.2415 34.3489 38.3562 35.7572C39.7643 36.5702 41.4379 35.7086 42.4402 34.867C44.8352 32.854 45.116 29.5015 44.5105 29.5015H44.3263Z" fill="white"/>
<path d="M65.6449 35.236C65.7377 35.3861 67.5658 36.4729 67.3945 36.5892C66.5029 37.1845 65.7222 37.1073 64.6387 36.6633C64.1569 36.4666 63.6905 36.1272 63.353 36.1357C62.8454 36.1484 62.3056 36.7277 61.9758 36.8906C61.2788 37.2331 60.4736 37.619 59.4945 37.6433C57.8841 37.6824 56.1925 36.9878 55.8215 35.9094C55.663 35.4453 55.6643 34.8818 55.8215 34.3267C56.4927 31.9659 60.1309 29.3672 62.6187 28.1461C63.2203 27.85 63.9559 27.4176 64.823 27.3933C65.9232 27.3595 67.1819 28.1651 67.1188 29.0511C67.0041 30.6634 64.7238 33.7336 65.6436 35.2349M64.1788 29.5015C62.8879 29.9529 61.494 31.1402 60.4118 32.1403C59.3425 33.131 58.0941 34.3489 58.2075 35.7572C59.6169 36.5702 61.2904 35.7086 62.2914 34.867C64.6864 32.854 64.966 29.5015 64.3618 29.5015H64.1775H64.1788Z" fill="white"/>
<path d="M82.9975 19.06C83.0876 19.2102 84.9183 20.297 84.747 20.4123C83.8555 21.0075 83.0748 20.9293 81.9913 20.4863C81.5094 20.2896 81.0431 19.9502 80.7055 19.9587C80.1979 19.9714 79.6581 20.5486 79.3283 20.7136C78.6313 21.0561 77.8249 21.442 76.847 21.4663C75.2366 21.5055 73.5451 20.8108 73.174 19.7325C73.013 19.2683 73.0168 18.7059 73.174 18.1498C73.8439 15.7889 77.4834 13.1902 79.9686 11.9691C80.5703 11.673 81.3085 11.2406 82.1742 11.2153C83.2745 11.1835 84.5331 11.9892 84.47 12.8741C84.3541 14.4864 82.0737 17.5566 82.9949 19.059M81.5301 13.3266C80.2392 13.7759 78.8439 14.9643 77.763 15.9644C76.6937 16.9551 75.4453 18.1741 75.5587 19.5813C76.9681 20.3943 78.6391 19.5326 79.6427 18.69C82.0364 16.677 82.3185 13.3266 81.713 13.3266H81.5288H81.5301Z" fill="white"/>
<path d="M98.4011 37.0407C97.0999 37.5577 96.1813 36.4856 96.0138 35.7593C95.5371 33.6945 97.6307 31.3738 96.9311 29.5025C94.7036 30.787 93.2414 32.6489 91.3282 34.2506C90.7072 34.7718 90.121 35.4231 89.1239 35.533C87.0291 34.5593 89.2669 31.9553 89.0311 29.955C90.0566 28.7719 92.4181 29.9391 91.4184 31.4626C93.0236 30.602 94.9883 28.0541 97.114 27.5413C98.8558 27.1226 99.7164 28.3543 99.5928 29.8778C99.4459 31.7206 97.9914 33.8287 98.1254 35.681C98.164 36.2255 98.499 36.5152 98.3998 37.0385" fill="white"/>
<path d="M26.6613 33.4239C26.2143 33.4905 25.8342 33.8764 25.4671 34.1766C24.7353 34.7793 23.9726 35.3882 23.0798 35.9877C22.616 36.2996 22.187 36.7405 21.7026 36.7405C21.2581 36.7405 20.4207 36.1865 20.3241 35.7604C20.2172 35.2825 20.5779 34.5498 20.7827 33.9514C21.2968 32.4618 22.1277 30.5185 22.9883 29.4296C23.6892 29.4074 24.1349 29.5935 24.4583 29.8821C24.6348 30.8875 23.9803 31.8475 23.8154 32.8223C24.3153 32.5358 24.8963 32.0854 25.5611 31.5399C26.0133 31.1688 26.6175 30.3335 27.397 30.3346C29.0628 30.3356 28.6312 33.3097 28.8669 34.5541C29.055 35.5394 29.6026 36.5385 30.7955 36.288C32.5142 35.9274 33.8411 32.3169 33.5513 30.0333C33.4533 29.2647 33.0836 28.6821 32.4497 28.2994C32.3145 28.181 31.7283 28.0425 31.9911 27.8469C31.9576 27.719 32.062 27.7063 32.1753 27.6978C34.3333 27.0381 35.6538 28.7931 35.7556 30.4858C35.8973 32.8149 34.5652 36.3778 32.9084 37.5715C29.913 39.7314 26.1061 36.8504 26.6639 33.426" fill="white"/>
<path d="M163.764 28.901C162.39 30.878 160.235 32.6161 160.642 35.9105C160.698 36.362 161.043 36.769 160.825 37.3431C158.102 38.1032 157.991 34.9072 158.437 33.0454C158.163 32.9883 157.906 33.223 157.704 33.3467C156.538 34.0603 155.455 34.9209 154.031 35.6081C153.486 35.8714 152.759 36.1495 152.193 36.1368C150.655 36.1008 149.957 34.9347 150.173 33.4989C150.43 31.7862 151.312 28.7149 152.836 28.7508C153.399 28.7635 153.92 29.2594 153.94 29.806C153.96 30.397 153.343 31.1719 153.02 31.8422C152.678 32.559 152.267 33.2198 152.378 34.1026C153.069 34.1016 153.69 33.7802 154.306 33.4989C155.689 32.8688 157.254 31.9828 158.623 31.1624C158.88 31.007 159.3 30.8389 159.45 30.7099C159.858 30.3621 160.138 29.7034 160.552 29.2033C160.935 28.7413 161.401 28.126 161.931 27.997C162.676 27.8152 163.48 28.2476 163.766 28.901" fill="white"/>
<path d="M125.243 31.5388C125.539 31.5652 125.866 31.2988 126.162 31.0863C127.234 30.3166 128.748 28.7455 131.028 28.9781C132.18 29.0934 133.009 30.7807 132.866 32.2926C133.315 32.1509 133.564 31.6318 134.151 31.6149C134.977 31.5906 135.581 32.5062 136.08 33.1965C137.261 34.8342 138.132 36.5279 141.589 36.2879C142.274 36.2404 142.836 35.8153 143.535 36.2901C143.314 36.9223 143.573 37.2744 142.837 37.4837C142.019 37.7163 140.116 37.8474 139.2 37.7956C136.652 37.6476 135.231 35.716 134.24 34.4029C133.176 35.162 132.747 36.4444 131.485 37.0407C130.818 36.7098 130.015 36.5692 129.833 35.9856C129.65 35.4072 130.036 34.2728 130.199 33.4239C130.371 32.5241 130.642 31.6995 130.292 31.0123C129.162 30.933 128.543 31.6075 127.904 32.1425C126.693 33.1574 125.853 34.2136 124.781 35.6102C124.382 36.1294 123.762 37.2648 123.22 37.3441C122.316 37.4773 122.139 36.6812 121.75 36.2129C121.76 35.4982 122.448 33.9218 122.853 32.2186C123.21 30.7162 122.931 28.5457 124.323 28.3744C124.968 28.2951 125.526 28.792 125.609 29.0532C125.896 29.9603 125.044 30.5101 125.24 31.5398" fill="white"/>
<path d="M56.7781 9.35559C58.221 9.5163 58.9438 9.40846 60.2102 9.79224C60.6122 9.91382 61.2344 10.212 61.2641 10.5778C59.454 10.7691 58.2339 10.6031 56.5875 10.9267C55.991 14.1819 56 17.9352 55.5336 21.2972C54.2943 21.3046 53.8601 20.1321 53.2378 19.4111C51.9843 17.9648 50.7591 16.6474 49.503 14.9336C48.9065 14.1185 47.9261 12.9439 48.2585 12.0262C48.8588 10.3758 52.193 9.93391 54.5764 9.51312C54.8302 8.32055 55.0363 6.73679 55.3417 5.27039C55.6599 3.74478 56.0734 1.89354 57.0654 1.34271C57.6632 1.52033 58.4658 1.7857 58.596 2.28472C58.6977 2.67062 58.3228 3.46567 58.118 4.09156C57.6246 5.60025 56.9495 7.74435 56.7781 9.35665M50.5556 13.0486C50.5259 13.7548 51.5592 14.7148 52.0861 15.4052C52.3811 15.7921 52.6774 16.1717 52.9492 16.5058C53.2327 16.8568 53.4027 17.4002 53.9065 17.3706C54.0018 15.2751 54.2311 13.2907 54.3857 11.2417C52.832 11.4278 50.5981 12.0389 50.5568 13.0486" fill="white"/>
<path d="M6.50558 16.898C6.04822 17.7015 5.0034 18.0218 4.97248 19.1753C6.34583 19.6754 8.81038 18.5261 8.99461 17.6835C9.25485 16.4772 7.80678 15.3089 7.17421 14.4621C6.37417 13.3911 5.42597 12.1657 5.45044 10.5344C5.47363 9.09125 6.68079 8.24228 8.6094 8.25602C10.5174 8.26871 12.2695 9.15574 12.5349 9.82709C12.6869 10.2088 12.7153 11.7597 11.1951 11.4003C10.4916 11.2311 10.7841 10.4149 10.3319 10.0629C9.71478 9.58498 7.88794 9.82921 7.65089 10.6126C7.29918 11.7841 8.73437 13.3308 9.27804 14.0698C10.1425 15.2413 11.6911 17.0534 11.0018 18.783C10.873 19.1076 10.1837 19.7843 9.66196 20.1205C8.46382 20.8912 6.70527 21.5604 4.58856 21.2982C3.32214 21.1418 2.04413 20.2865 2.57749 18.9416C3.02454 17.8209 4.65169 15.9422 6.503 16.899" fill="white"/>
<path d="M112.503 9.51208C112.431 10.1348 112.71 11.044 112.216 11.3189C111.736 11.5547 111.014 11.2978 110.781 10.9256C110.59 10.6201 110.864 10.3484 110.493 10.0608C109.863 9.5734 108.047 9.8356 107.812 10.6116C107.482 11.7143 108.681 13.0369 109.441 14.0688C110.278 15.2054 112.077 17.526 110.971 19.0971C110.175 20.2283 106.642 22.0785 103.983 21.1386C103.106 20.8289 102.294 20.056 102.739 18.9385C103.174 17.8474 104.701 15.9782 106.664 16.898C106.207 17.7005 105.162 18.0219 105.131 19.1753C106.487 19.6691 108.965 18.5452 109.153 17.6835C109.182 17.5535 109.125 17.2258 109.057 16.9763C108.599 15.3005 105.562 13.2801 105.612 10.5344C105.635 9.15896 106.689 8.24233 108.769 8.25501C110.363 8.26664 111.282 8.72972 112.503 9.51314" fill="white"/>
<path d="M33.9257 11.0842C33.601 11.1455 33.0432 11.2702 32.6811 11.3971C31.0076 11.9881 28.5289 14.7084 28.565 16.8187C28.5791 17.6793 29.0661 18.9681 30.0968 19.0981C31.6093 19.2895 32.6863 18.1931 33.3511 17.3695C33.7298 16.9033 34.1949 16.3091 34.3096 15.9549C34.5415 15.2307 34.5531 14.2136 34.0223 13.7569C32.667 13.4989 32.9556 16.1378 31.8206 16.1135C30.9741 16.0924 30.7899 14.3648 31.0553 13.6776C31.3091 13.0147 32.475 12.0262 33.5443 11.8708C34.0158 11.802 34.4126 11.9226 34.8842 11.8708C36.2382 12.5876 36.9725 13.4291 36.7986 15.0922C36.5397 17.5926 33.8664 20.2114 31.1519 20.5116C29.6214 20.6829 28.7801 20.4926 28.087 20.0412C27.1336 19.4185 26.4495 18.1212 26.3632 17.1348C26.3297 16.7341 26.3452 16.2784 26.4599 15.7202C26.8605 13.7643 28.9798 11.0598 30.9587 9.98463C31.8038 9.52578 32.77 9.15892 34.1176 9.35557C35.0349 9.48772 36.4108 10.4699 35.9367 11.1613C35.5425 11.7386 34.5376 11.3559 33.9257 11.0842Z" fill="white"/>
<path d="M17.5462 10.2976C17.6712 10.526 17.6712 10.8548 17.5462 11.0831C19.8871 11.8909 22.6286 12.946 24.3434 14.461C24.9295 14.9801 25.7579 15.9074 25.5879 16.898C25.3856 18.0747 23.4506 19.0548 21.6624 19.2546C20.0069 19.4396 17.7781 19.1637 17.5462 18.0758C17.2512 16.7013 19.7982 14.4885 21.4717 15.4834C21.5361 16.3028 20.1087 16.5597 20.0365 17.526C20.5402 17.7607 21.3609 17.5292 21.9509 17.3674C24.6577 16.6326 22.4147 15.0097 20.8971 14.1481C19.6629 13.4461 18.4171 12.9629 17.3555 12.7335C16.8144 13.7199 16.9098 15.2529 16.9716 16.4254C17.152 19.7642 17.7214 23.2277 18.3127 26.1669C17.894 26.4619 16.8505 26.8858 16.205 26.4819C15.7039 26.1648 15.4411 24.0862 15.2504 23.0247C14.7763 20.4281 14.5431 17.9774 13.9093 15.6399C13.5137 14.1809 12.1121 11.0377 14.5792 10.8474C14.9979 10.4012 14.9515 9.78377 15.7297 9.66959C16.4099 9.56915 17.0437 9.98042 17.5475 10.2987" fill="white"/>
<path d="M95.8886 17.2109C96.1863 18.1529 97.2285 18.5833 98.2811 18.6255C99.858 18.69 101.221 17.5588 102.494 17.6835C101.944 19.0125 100.181 19.8784 98.2811 19.9608C94.6325 20.1173 92.0044 17.4414 93.111 14.2263C93.531 13.0052 95.0242 11.1793 96.3666 10.4551C97.0456 10.0893 98.531 9.58818 99.8142 9.82607C101.072 10.0608 101.946 11.2608 101.729 12.8117C101.553 14.0508 100.377 15.8968 99.6222 16.4265C98.7565 17.0333 97.5454 17.2627 95.8886 17.212M96.7492 12.9693C96.1231 13.5708 95.3437 14.3426 95.4094 15.4052C98.513 15.9592 99.4728 13.6628 99.3349 11.5557C98.0865 11.5346 97.3354 12.41 96.7492 12.9703" fill="white"/>
<path d="M46.8527 13.3615C45.8878 13.1141 45.938 12.2165 45.2256 11.8676C44.0674 11.302 42.5987 11.6741 41.7793 12.3392C41.4418 12.614 40.9754 12.965 40.8221 13.3605C40.1805 15.0024 40.3506 17.5218 40.4382 19.724C40.0362 20.0475 39.8984 20.4091 39.195 20.3531C37.8551 20.2474 37.9285 17.9352 38.0445 16.5819C38.127 15.6325 38.0986 14.4251 38.0445 13.4397C37.9891 12.4047 37.6928 11.4289 38.3318 11.0038C38.8226 10.8463 39.0996 11.0303 39.5763 11.0831C41.3194 9.95611 45.8607 9.50044 47.0434 11.3178C47.3655 11.8116 47.6373 12.8953 46.8527 13.3605" fill="white"/>
<path d="M90.5554 6.78649C91.1184 4.68468 91.7201 2.61565 92.1826 0.476833C91.9442 0.0349029 91.0914 -0.10994 90.3647 0.0845935C89.8288 0.65445 89.6987 1.46853 89.5016 2.20649C89.0623 3.8558 88.6152 5.50405 88.2004 7.17133L87.7765 8.93165C87.18 11.5029 86.6892 14.1333 86.4392 16.897C86.2911 18.5177 85.7861 21.0445 87.4918 21.2951C88.7788 21.4844 89.91 20.5318 90.6507 20.0391C91.5758 19.4238 92.6116 18.8719 92.5652 17.9172C91.1352 17.8538 90.1702 19.2388 88.6397 19.095C88.4864 15.6304 89.1846 12.4417 89.8842 9.43278C89.9679 9.07543 90.0555 8.71914 90.1444 8.36496L90.5554 6.78649Z" fill="white"/>
<path d="M86.9404 3.94143L82.9169 2.55326C82.5987 2.45494 82.2419 2.58709 82.1221 2.84929C82.0022 3.11149 82.1659 3.40329 82.4828 3.50056L84.2349 4.16134C57.7947 4.73436 57.5938 18.4648 57.5938 18.4648C57.7084 18.9163 58.5458 19.5898 59.0586 19.5686C59.4141 19.5538 59.9617 19.1595 60.3997 18.8603C61.7177 17.9616 62.6646 16.9392 63.8447 16.1907C63.9516 18.1403 64.5056 19.7272 65.8557 20.5889C66.5231 21.0149 67.4365 21.3046 68.5354 21.1407C71.2641 20.7316 73.4968 15.8873 73.0368 12.891C72.9801 12.5199 72.814 11.9892 72.6529 11.7133C72.1943 10.9203 70.1871 9.54801 69.2067 10.7712C69.7581 11.1846 70.1317 11.3094 70.4512 11.7904C71.478 13.3425 70.3906 16.9477 69.3973 18.2333C69.0714 18.6583 68.4015 19.1637 67.8668 19.1774C65.6702 19.2271 66.2435 16.3313 65.9524 14.6196C65.8609 14.0847 65.4383 13.1342 64.7078 13.1279C64.0366 13.1215 63.2598 13.9229 62.7934 14.3056C62.1183 14.8596 61.1907 15.8503 61.0078 15.5764C63.3667 6.44499 80.9175 4.7904 84.3444 4.55252L82.7727 5.42052C82.4751 5.55585 82.3655 5.8635 82.5305 6.10773C82.6412 6.27477 82.8525 6.36887 83.0703 6.36887C83.172 6.36887 83.2738 6.34878 83.3679 6.30755L86.9919 4.5134C87.122 4.45314 87.198 4.3379 87.1877 4.2142C87.1774 4.09156 87.0795 3.98583 86.9391 3.94249" fill="white"/>
</g>
<defs>
<clipPath id="clip0_679_1442">
<rect width="163.765" height="54" fill="white"/>
</clipPath>
</defs>
</svg>
