<svg width="536" height="244" viewBox="0 0 536 244" fill="none" xmlns="http://www.w3.org/2000/svg">
<g clip-path="url(#clip0_4999_3084)">
<path d="M107.565 147.521C110.372 144.684 112.696 141.221 116.069 138.211C117.164 137.232 118.605 136.118 119.896 136.26C124.207 136.737 121.811 146.127 121.811 149.903C121.811 154.903 122.915 158.393 124.574 161.598C125.066 162.552 126.599 163.66 125.636 165.064C122.873 165.261 120.541 163.405 119.255 161.598C116.818 158.174 116.266 151.911 116.066 145.79C114.324 146.576 112.878 148.894 111.174 150.987C109.686 152.816 107.762 154.769 106.709 156.619C105.396 158.916 104.695 163.502 102.243 163.764C100.791 163.922 99.7945 162.482 99.0547 161.382C103.198 145.674 106.163 140.835 104.34 121.752C105.012 121.102 105.605 119.969 107.529 120.455C110.139 121.105 110.092 124.817 110.294 128.463C110.954 140.231 108.633 138.183 107.562 147.521" fill="black"/>
<path d="M337.757 211.404C336.152 210.271 335.922 208.534 336.057 205.991C336.292 201.629 337.393 197.079 338.392 192.78C341.178 180.824 345.113 168.303 347.964 156.398C346.882 156.541 346.142 157.734 345.199 158.564C343.439 160.125 341.545 161.86 339.034 163.111C337.56 163.843 334.941 164.997 333.5 163.764C332.215 162.658 332.904 159.381 333.288 157.051C334.219 151.404 334.538 148.779 335.842 143.409C336.432 140.975 336.752 138.323 338.607 138.208C340.069 138.12 340.397 139.156 341.157 140.158C340.206 146.045 338.813 151.486 338.18 157.701C342.184 155.802 345.032 153.108 348.176 149.903C349 149.071 350.351 147.986 350.941 146.872C351.702 145.435 351.971 143.044 352.642 141.027C354.1 136.638 355.651 131.905 357.745 127.816C358.593 126.17 359.479 124.314 361.573 124.35C364.263 124.399 365.188 128.569 364.55 131.71C363.276 138.017 357.984 142.47 355.407 147.737C353.999 150.614 353.375 154.083 352.43 157.479C347.944 173.591 343.105 191.389 341.157 209.023C340.277 210.074 339.618 211.356 337.754 211.404" fill="black"/>
<path d="M279.624 137.557C277.971 139.736 276.593 137.633 274.732 137.557C272.823 137.475 270.973 138.824 269.84 139.72C267.104 141.892 263.089 147.539 262.612 152.5C262.293 155.811 263.233 160.228 266.227 160.51C267.2 160.608 268.772 160.088 269.631 159.648C271.618 158.627 274.973 154.529 275.797 151.2C276.307 149.137 276.351 146.75 275.161 145.137C271.817 144.535 272.715 151.835 270.057 151.85C268.133 151.862 267.68 147.302 268.142 145.352C268.903 142.138 272.629 139.091 277.076 139.723C281.318 141.513 282.568 148.247 280.48 153.587C279.701 155.565 277.598 158.627 276.014 160.298C274.108 162.306 271.391 163.934 268.993 164.414C265.998 165.006 263.176 164.605 261.338 163.117C259.396 161.531 257.839 158.256 257.514 155.969C256.634 149.851 258.94 145.216 261.765 141.027C263.805 137.995 266.567 134.991 268.993 133.66C272.855 131.552 279.406 131.919 279.627 137.561" fill="black"/>
<path d="M94.7564 145.14C94.6908 142.825 96.7788 141.346 95.6095 139.076C94.7296 137.375 91.5408 138.062 90.0762 138.861C86.7234 140.692 83.3825 147.005 84.1252 152.719C84.5757 156.212 86.8755 159.162 90.7175 159.432C92.9666 159.59 95.2367 158.424 97.7334 158.782C97.3486 160.766 96.5462 161.124 95.6095 161.814C88.1104 167.33 79.3376 159.426 78.5919 150.984C77.9386 143.572 83.4332 134.559 90.0762 133.226C91.5796 132.925 93.957 132.901 95.183 133.226C97.268 133.779 101.769 136.838 100.928 141.455C100.564 143.426 96.8206 147.922 94.7594 145.14" fill="black"/>
<path d="M326.648 145.14C326.583 142.825 328.671 141.346 327.502 139.076C326.625 137.378 323.436 138.062 321.968 138.861C318.621 140.686 315.275 147.002 316.014 152.719C316.316 155.046 317.598 157.555 319.418 158.566C322.413 160.228 325.873 158.715 329.628 158.785C329.244 160.769 328.441 161.127 327.505 161.817C320.005 167.333 311.233 159.429 310.49 150.987C309.84 143.575 315.331 134.562 321.974 133.229C323.478 132.928 325.855 132.904 327.081 133.229C329.166 133.782 333.673 136.841 332.82 141.458C332.459 143.429 328.719 147.925 326.654 145.143" fill="black"/>
<path d="M241.697 155.1C242.553 158.43 245.926 159.611 249.78 158.782C252.408 158.217 254.547 155.902 256.793 156.404C256.161 159.757 251.633 162.5 247.862 162.898C242.744 163.436 239.006 161.306 236.805 157.916C235.528 155.951 234.463 153.445 234.681 149.909C235.057 143.764 240.28 135.629 246.162 134.098C251.451 132.725 255.773 135.723 255.096 142.327C254.941 143.806 254.282 145.55 253.607 147.09C252.984 148.518 252.405 150.17 251.692 151.206C249.667 154.162 245.762 155.289 241.697 155.103M245.736 140.38C243.346 142.376 240.566 146.306 240.423 149.909C247.818 151.571 249.685 144.639 249.78 138.864C247.847 138.703 246.729 139.55 245.736 140.38Z" fill="black"/>
<path d="M211.846 144.055C209.472 141.953 209.012 138.375 204.192 138.861C200.222 139.256 197.576 143.748 197.17 148.603C196.976 150.999 197.17 154.617 197.17 157.698C197.17 161.282 197.385 164.292 194.408 163.976C190.408 163.551 191.643 152.962 191.643 148.168V142.539C191.643 140.887 191.321 139.01 192.069 137.558C192.803 136.85 194.465 137.114 195.261 137.558C198.85 134.584 208.705 132.767 212.058 137.342C212.986 138.606 214.415 142.664 211.846 144.052" fill="black"/>
<path d="M425.841 144.055C423.466 141.953 423.013 138.375 418.183 138.861C414.231 139.256 411.57 143.758 411.167 148.603C410.968 150.999 411.167 154.617 411.167 157.698C411.167 161.282 411.382 164.292 408.405 163.976C404.408 163.551 405.64 152.962 405.64 148.168V142.539C405.64 140.887 405.318 139.01 406.067 137.558C406.797 136.85 408.462 137.114 409.258 137.558C412.862 134.596 422.705 132.761 426.055 137.342C426.983 138.606 428.412 142.664 425.844 144.052" fill="black"/>
<path d="M184.564 157.494C184.773 157.925 189.012 161.048 188.615 161.382C186.551 163.093 184.743 162.871 182.234 161.595C181.119 161.03 180.039 160.055 179.257 160.079C178.082 160.116 176.832 161.78 176.069 162.248C174.455 163.232 172.591 164.341 170.324 164.411C166.595 164.523 162.678 162.528 161.819 159.429C161.446 158.096 161.455 156.476 161.819 154.882C163.373 148.098 171.797 140.632 177.557 137.123C178.95 136.273 180.654 135.03 182.661 134.96C185.208 134.863 188.123 137.178 187.977 139.724C187.714 144.356 182.431 153.178 184.561 157.491M181.17 141.018C178.181 142.315 174.956 145.726 172.447 148.6C169.972 151.446 167.081 154.945 167.347 158.992C170.607 161.328 174.482 158.852 176.803 156.434C182.348 150.65 182.998 141.018 181.596 141.018H181.17Z" fill="black"/>
<path d="M230.531 157.494C230.745 157.925 234.978 161.048 234.581 161.382C232.517 163.093 230.71 162.871 228.201 161.595C227.085 161.03 226.006 160.055 225.224 160.079C224.049 160.116 222.799 161.78 222.035 162.248C220.421 163.232 218.557 164.341 216.29 164.411C212.561 164.523 208.645 162.528 207.786 159.429C207.419 158.096 207.422 156.477 207.786 154.882C209.34 148.099 217.764 140.632 223.524 137.123C224.917 136.273 226.62 135.03 228.628 134.96C231.175 134.863 234.089 137.178 233.943 139.724C233.678 144.356 228.398 153.178 230.528 157.491M227.136 141.018C224.147 142.315 220.92 145.726 218.414 148.6C215.938 151.446 213.048 154.946 213.31 158.992C216.573 161.328 220.448 158.852 222.766 156.434C228.311 150.65 228.959 141.018 227.56 141.018H227.133H227.136Z" fill="black"/>
<path d="M270.709 111.017C270.917 111.449 275.156 114.572 274.759 114.903C272.695 116.613 270.888 116.388 268.379 115.115C267.263 114.55 266.184 113.575 265.402 113.599C264.227 113.636 262.977 115.295 262.213 115.768C260.599 116.753 258.732 117.861 256.468 117.931C252.739 118.044 248.823 116.048 247.964 112.949C247.591 111.616 247.6 110 247.964 108.402C249.515 101.619 257.942 94.1521 263.696 90.6436C265.089 89.793 266.798 88.5506 268.803 88.4777C271.35 88.3866 274.264 90.7013 274.118 93.2439C273.85 97.8763 268.57 106.698 270.703 111.014M267.311 94.544C264.322 95.835 261.092 99.2494 258.589 102.123C256.113 104.969 253.223 108.472 253.485 112.515C256.749 114.851 260.617 112.375 262.941 109.954C268.483 104.17 269.137 94.544 267.735 94.544H267.308H267.311Z" fill="black"/>
<path d="M306.374 162.68C303.361 164.165 301.234 161.085 300.847 158.998C299.743 153.065 304.59 146.397 302.97 141.021C297.813 144.712 294.427 150.061 289.998 154.663C288.56 156.161 287.203 158.032 284.894 158.348C280.044 155.55 285.225 148.068 284.679 142.321C287.054 138.922 292.521 142.275 290.207 146.653C293.923 144.18 298.472 136.859 303.394 135.386C307.427 134.183 309.42 137.722 309.133 142.099C308.793 147.394 305.425 153.451 305.736 158.773C305.825 160.337 306.601 161.17 306.371 162.673" fill="black"/>
<path d="M140.271 152.285C139.236 152.476 138.356 153.585 137.506 154.447C135.811 156.179 134.045 157.929 131.978 159.651C130.904 160.547 129.911 161.814 128.789 161.814C127.76 161.814 125.821 160.222 125.598 158.998C125.35 157.625 126.185 155.52 126.66 153.8C127.85 149.52 129.774 143.937 131.766 140.808C133.389 140.744 134.421 141.279 135.17 142.108C135.579 144.997 134.063 147.755 133.681 150.556C134.839 149.733 136.184 148.439 137.723 146.871C138.77 145.805 140.169 143.405 141.974 143.408C145.831 143.411 144.832 151.956 145.377 155.532C145.813 158.363 147.081 161.234 149.843 160.514C153.822 159.478 156.895 149.104 156.223 142.543C155.997 140.334 155.141 138.66 153.673 137.561C153.36 137.221 152.003 136.823 152.611 136.261C152.534 135.893 152.775 135.857 153.038 135.832C158.034 133.937 161.092 138.979 161.327 143.843C161.655 150.535 158.571 160.772 154.735 164.201C147.8 170.407 138.985 162.13 140.277 152.291" fill="black"/>
<path d="M457.716 139.289C454.537 144.969 449.546 149.963 450.489 159.429C450.617 160.726 451.416 161.896 450.912 163.545C444.606 165.729 444.35 156.546 445.382 151.197C444.75 151.033 444.153 151.707 443.685 152.063C440.985 154.113 438.479 156.586 435.18 158.56C433.918 159.317 432.236 160.115 430.927 160.079C427.365 159.976 425.748 156.625 426.249 152.5C426.843 147.579 428.886 138.754 432.415 138.858C433.719 138.894 434.924 140.319 434.971 141.889C435.016 143.587 433.587 145.814 432.842 147.74C432.048 149.799 431.097 151.698 431.353 154.234C432.955 154.231 434.393 153.308 435.819 152.5C439.019 150.689 442.644 148.144 445.814 145.787C446.408 145.34 447.38 144.857 447.729 144.486C448.672 143.487 449.322 141.595 450.28 140.158C451.166 138.83 452.246 137.062 453.472 136.692C455.199 136.169 457.06 137.412 457.722 139.289" fill="black"/>
<path d="M368.524 146.868C369.21 146.944 369.968 146.179 370.654 145.568C373.136 143.357 376.641 138.843 381.921 139.511C384.587 139.842 386.505 144.69 386.174 149.034C387.215 148.627 387.791 147.136 389.151 147.087C391.063 147.017 392.462 149.648 393.617 151.631C396.352 156.337 398.368 161.203 406.372 160.514C407.959 160.377 409.259 159.156 410.879 160.52C410.366 162.336 410.965 163.348 409.262 163.949C407.368 164.618 402.962 164.994 400.841 164.845C394.941 164.42 391.651 158.87 389.357 155.097C386.893 157.279 385.9 160.963 382.977 162.677C381.434 161.726 379.573 161.322 379.152 159.645C378.729 157.983 379.624 154.724 380 152.285C380.399 149.699 381.026 147.33 380.214 145.356C377.598 145.128 376.166 147.066 374.687 148.603C371.883 151.519 369.938 154.554 367.456 158.567C366.532 160.058 365.097 163.321 363.841 163.548C361.747 163.931 361.338 161.644 360.438 160.298C360.461 158.244 362.054 153.715 362.991 148.822C363.817 144.505 363.173 138.269 366.394 137.776C367.889 137.549 369.18 138.976 369.371 139.727C370.037 142.333 368.065 143.913 368.518 146.871" fill="black"/>
<path d="M210.001 83.1311C213.341 83.5929 215.015 83.283 217.947 84.3857C218.878 84.735 220.319 85.5917 220.387 86.6427C216.196 87.1925 213.371 86.7156 209.559 87.6452C208.178 96.9982 208.199 107.782 207.119 117.442C204.249 117.463 203.244 114.094 201.803 112.023C198.901 107.867 196.064 104.082 193.156 99.1581C191.775 96.816 189.505 93.4411 190.274 90.8044C191.664 86.0625 199.384 84.7928 204.903 83.5838C205.49 80.1572 205.968 75.6068 206.675 71.3935C207.411 67.0101 208.369 61.691 210.666 60.1084C212.05 60.6187 213.908 61.3812 214.209 62.815C214.445 63.9238 213.577 66.2081 213.103 68.0064C211.96 72.3412 210.397 78.5017 210.001 83.1342M195.593 93.7418C195.524 95.771 197.917 98.5292 199.137 100.513C199.82 101.625 200.506 102.715 201.135 103.675C201.792 104.684 202.185 106.245 203.352 106.16C203.572 100.139 204.103 94.4375 204.461 88.5504C200.864 89.085 195.691 90.8408 195.596 93.7418" fill="black"/>
<path d="M93.6017 104.802C92.5427 107.111 90.1236 108.031 90.052 111.345C93.2318 112.782 98.9381 109.48 99.3647 107.059C99.9672 103.593 96.6144 100.236 95.1498 97.8032C93.2974 94.726 91.102 91.2053 91.1586 86.5182C91.2123 82.3717 94.0073 79.9324 98.4728 79.9719C102.891 80.0084 106.947 82.557 107.562 84.4859C107.914 85.5825 107.979 90.0388 104.46 89.006C102.831 88.52 103.508 86.1749 102.461 85.1633C101.032 83.7903 96.8024 84.492 96.2535 86.7429C95.4392 90.1087 98.7621 94.5529 100.021 96.6762C102.022 100.042 105.608 105.249 104.012 110.218C103.714 111.151 102.118 113.095 100.91 114.061C98.1357 116.275 94.064 118.198 89.1631 117.445C86.2308 116.995 83.2718 114.538 84.5067 110.674C85.5418 107.454 89.3092 102.056 93.5957 104.805" fill="black"/>
<path d="M339.027 83.5836C338.86 85.3728 339.507 87.9853 338.362 88.7751C337.252 89.4525 335.579 88.7143 335.039 87.645C334.598 86.7671 335.233 85.9865 334.374 85.1602C332.915 83.7598 328.709 84.5132 328.166 86.7428C327.403 89.9112 330.177 93.7113 331.937 96.6761C333.876 99.9417 338.04 106.609 335.481 111.123C333.637 114.374 325.458 119.69 319.301 116.989C317.27 116.099 315.39 113.879 316.42 110.668C317.428 107.533 320.963 102.162 325.509 104.805C324.45 107.111 322.03 108.034 321.959 111.348C325.097 112.767 330.836 109.538 331.272 107.062C331.337 106.688 331.206 105.747 331.048 105.03C329.989 100.215 322.955 94.41 323.072 86.5211C323.125 82.569 325.565 79.9354 330.383 79.9718C334.073 80.0052 336.199 81.3357 339.027 83.5867" fill="black"/>
<path d="M157.089 88.0979C156.337 88.2741 155.046 88.6325 154.207 88.997C150.333 90.6951 144.593 98.5111 144.677 104.574C144.71 107.047 145.837 110.75 148.224 111.124C151.726 111.673 154.219 108.523 155.758 106.157C156.635 104.817 157.712 103.11 157.978 102.093C158.515 100.012 158.542 97.0895 157.313 95.7772C154.175 95.036 154.843 102.618 152.215 102.548C150.255 102.487 149.828 97.5238 150.443 95.5493C151.031 93.6447 153.73 90.8045 156.206 90.3579C157.298 90.1605 158.216 90.5068 159.308 90.3579C162.443 92.4175 164.143 94.8355 163.741 99.6138C163.141 106.798 156.952 114.322 150.667 115.185C147.123 115.677 145.175 115.13 143.57 113.833C141.363 112.044 139.779 108.317 139.579 105.483C139.501 104.331 139.537 103.022 139.803 101.418C140.73 95.7984 145.637 88.028 150.219 84.9387C152.176 83.6203 154.413 82.5662 157.533 83.1312C159.657 83.5109 162.843 86.333 161.745 88.3196C160.832 89.9782 158.506 88.8786 157.089 88.0979Z" fill="black"/>
<path d="M119.167 85.8378C119.456 86.4939 119.456 87.4386 119.167 88.0948C124.587 90.4156 130.935 93.4472 134.905 97.8002C136.262 99.2917 138.18 101.956 137.786 104.802C137.318 108.183 132.838 110.999 128.697 111.573C124.864 112.105 119.704 111.312 119.167 108.186C118.484 104.237 124.381 97.8792 128.256 100.738C128.405 103.092 125.1 103.83 124.933 106.607C126.099 107.281 127.999 106.616 129.366 106.151C135.633 104.04 130.439 99.3768 126.925 96.9011C124.068 94.884 121.183 93.4958 118.725 92.8366C117.473 95.6708 117.693 100.075 117.836 103.444C118.254 113.037 119.573 122.989 120.942 131.434C119.972 132.281 117.556 133.499 116.062 132.339C114.901 131.428 114.293 125.455 113.851 122.406C112.754 114.945 112.214 107.904 110.746 101.187C109.83 96.9952 106.585 87.9641 112.297 87.4174C113.267 86.1355 113.159 84.3614 114.961 84.0334C116.536 83.7448 118.004 84.9264 119.17 85.8408" fill="black"/>
<path d="M300.556 105.704C301.245 108.411 303.658 109.647 306.095 109.769C309.747 109.954 312.902 106.704 315.85 107.062C314.576 110.88 310.495 113.368 306.095 113.605C297.648 114.055 291.563 106.366 294.125 97.1287C295.097 93.6202 298.555 88.3741 301.663 86.2932C303.235 85.2422 306.674 83.8023 309.645 84.4858C312.556 85.1602 314.582 88.608 314.078 93.0643C313.672 96.6245 310.949 101.928 309.201 103.45C307.196 105.194 304.392 105.853 300.556 105.707M302.549 93.5169C301.099 95.2454 299.294 97.4629 299.446 100.516C306.632 102.108 308.855 95.5096 308.535 89.4555C305.645 89.3947 303.906 91.91 302.549 93.5199" fill="black"/>
<path d="M187.024 94.6441C184.79 93.9332 184.906 91.3542 183.257 90.3518C180.575 88.7266 177.174 89.7959 175.277 91.7066C174.496 92.4964 173.416 93.5049 173.061 94.641C171.575 99.3586 171.969 106.597 172.172 112.925C171.241 113.854 170.922 114.893 169.293 114.732C166.191 114.429 166.361 107.785 166.63 103.897C166.821 101.169 166.755 97.7 166.63 94.8688C166.501 91.8949 165.815 89.0911 167.295 87.87C168.431 87.4174 169.073 87.9459 170.176 88.0978C174.212 84.8596 184.727 83.5504 187.466 88.7722C188.211 90.1908 188.841 93.3044 187.024 94.641" fill="black"/>
<path d="M288.208 75.7525C289.511 69.7136 290.904 63.7688 291.975 57.6235C291.423 56.3538 289.449 55.9376 287.766 56.4965C286.525 58.1338 286.224 60.4729 285.768 62.5932C284.75 67.332 283.715 72.0678 282.755 76.8582L281.773 81.916C280.392 89.3037 279.256 96.8615 278.677 104.802C278.334 109.459 277.165 116.719 281.114 117.439C284.094 117.983 286.713 115.246 288.428 113.83C290.57 112.062 292.968 110.476 292.861 107.733C289.55 107.551 287.316 111.531 283.772 111.117C283.417 101.163 285.034 92.0012 286.654 83.3559C286.847 82.3291 287.05 81.3054 287.256 80.2878L288.208 75.7525Z" fill="black"/>
<path d="M279.839 67.578L270.523 63.5895C269.786 63.307 268.96 63.6867 268.683 64.4401C268.405 65.1934 268.784 66.0318 269.518 66.3113L273.575 68.2098C212.356 69.8563 211.891 109.307 211.891 109.307C212.156 110.604 214.095 112.539 215.282 112.478C216.106 112.436 217.373 111.303 218.387 110.443C221.439 107.861 223.631 104.923 226.364 102.773C226.611 108.374 227.894 112.934 231.02 115.41C232.565 116.634 234.68 117.466 237.225 116.995C243.543 115.82 248.712 101.901 247.647 93.2921C247.516 92.2259 247.131 90.701 246.758 89.9081C245.696 87.6299 241.049 83.6869 238.779 87.2015C240.055 88.3893 240.921 88.7477 241.66 90.1299C244.038 94.5892 241.52 104.948 239.22 108.642C238.466 109.863 236.914 111.315 235.677 111.354C230.591 111.497 231.918 103.177 231.244 98.2588C231.032 96.7217 230.054 93.9908 228.362 93.9726C226.808 93.9544 225.01 96.2569 223.93 97.3566C222.367 98.9483 220.219 101.795 219.795 101.008C225.257 74.7713 265.894 70.0173 273.828 69.3338L270.189 71.8277C269.5 72.2166 269.246 73.1005 269.628 73.8022C269.885 74.2822 270.374 74.5526 270.878 74.5526C271.114 74.5526 271.349 74.4948 271.567 74.3764L279.958 69.2214C280.259 69.0482 280.435 68.7171 280.412 68.3617C280.388 68.0094 280.161 67.7056 279.836 67.581" fill="black"/>
</g>
<defs>
<clipPath id="clip0_4999_3084">
<rect width="378.832" height="156.065" fill="white" transform="translate(78.584 56.0015)"/>
</clipPath>
</defs>
</svg>
